<svg id="icon_back" xmlns="http://www.w3.org/2000/svg" width="20" height="20" viewBox="0 0 20 20">
  <rect id="_20" data-name="20" width="20" height="20" fill="#fff" opacity="0"/>
  <path id="Union_91" data-name="Union 91" d="M23722,11454.915a9.915,9.915,0,1,1,9.914,9.909A9.927,9.927,0,0,1,23722,11454.915Zm1.5,0a8.413,8.413,0,1,0,8.412-8.413A8.423,8.423,0,0,0,23723.5,11454.915Zm9.443,4.772-4.605-4.225a.73.73,0,0,1-.244-.548.745.745,0,0,1,.244-.555l4.605-4.224a.751.751,0,0,1,1.014,1.107l-4.006,3.671,4.006,3.67a.749.749,0,0,1-1.014,1.1Z" transform="translate(-23721.996 -11445)" fill="#4d9f75"/>
</svg>
