<svg xmlns="http://www.w3.org/2000/svg" xmlns:xlink="http://www.w3.org/1999/xlink" width="72" height="66" viewBox="0 0 72 66">
  <defs>
    <filter id="Rectangle_363" x="0" y="0" width="72" height="66" filterUnits="userSpaceOnUse">
      <feOffset dy="3" input="SourceAlpha"/>
      <feGaussianBlur stdDeviation="3" result="blur"/>
      <feFlood flood-opacity="0.161"/>
      <feComposite operator="in" in2="blur"/>
      <feComposite in="SourceGraphic"/>
    </filter>
  </defs>
  <g id="icon_widget" transform="translate(9 6)">
    <g transform="matrix(1, 0, 0, 1, -9, -6)" filter="url(#Rectangle_363)">
      <g id="Rectangle_363-2" data-name="Rectangle 363" transform="translate(9 6)" fill="#4d9f75" stroke="#3d6f55" stroke-width="1" opacity="0.6">
        <path d="M24,0H54a0,0,0,0,1,0,0V48a0,0,0,0,1,0,0H24A24,24,0,0,1,0,24v0A24,24,0,0,1,24,0Z" stroke="none"/>
        <path d="M24,.5H53.3a.2.2,0,0,1,.2.2V47.3a.2.2,0,0,1-.2.2H24A23.5,23.5,0,0,1,.5,24v0A23.5,23.5,0,0,1,24,.5Z" fill="none"/>
      </g>
    </g>
    <g id="Group_879" data-name="Group 879" transform="translate(10 8.002)">
      <path id="Union_67" data-name="Union 67" d="M0,14.494A14.494,14.494,0,1,1,14.494,28.988,14.51,14.51,0,0,1,0,14.494Zm11.34,5.023V22.35a.757.757,0,0,0,.756.758h8.85a.754.754,0,0,0,.752-.758V19.518a.749.749,0,0,0-.752-.752H12.1A.752.752,0,0,0,11.34,19.518ZM7.287,6.807V22.182a.754.754,0,0,0,.75.756H9.844a.754.754,0,0,0,0-1.508H8.793V7.563H9.844a.754.754,0,0,0,0-1.508H8.037A.754.754,0,0,0,7.287,6.807Zm4.053,6.27v2.84a.754.754,0,0,0,.756.75h8.85a.751.751,0,0,0,.752-.75v-2.84a.748.748,0,0,0-.752-.75H12.1A.751.751,0,0,0,11.34,13.076Zm0-6.439v2.84a.75.75,0,0,0,.756.75h8.85a.747.747,0,0,0,.752-.75V6.637a.751.751,0,0,0-.752-.75H12.1A.754.754,0,0,0,11.34,6.637ZM12.846,21.6V20.268H20.2V21.6Zm0-6.439V13.828H20.2V15.16Zm0-6.441V7.393H20.2V8.719Z" transform="translate(1.51 1.504)" fill="#fff" stroke="rgba(0,0,0,0)" stroke-width="1"/>
      <path id="Union_66" data-name="Union 66" d="M0,16A16,16,0,1,1,16,32,16.02,16.02,0,0,1,0,16Zm1.508,0A14.492,14.492,0,1,0,16,1.508,14.505,14.505,0,0,0,1.508,16Zm12.1,8.609a.753.753,0,0,1-.754-.748V21.018a.749.749,0,0,1,.754-.748h8.85a.749.749,0,0,1,.754.748v2.842a.753.753,0,0,1-.754.748Zm.754-1.5H21.7V21.771H14.357ZM9.547,24.443a.754.754,0,0,1-.754-.754V8.316a.754.754,0,0,1,.754-.754h1.8a.754.754,0,0,1,0,1.508H10.3V22.936h1.047a.754.754,0,0,1,0,1.508ZM13.6,18.17a.753.753,0,0,1-.754-.754V14.582a.753.753,0,0,1,.754-.754h8.85a.753.753,0,0,1,.754.754v2.834a.753.753,0,0,1-.754.754Zm.754-1.508H21.7V15.336H14.357ZM13.6,11.736a.754.754,0,0,1-.754-.754V8.146a.754.754,0,0,1,.754-.754h8.85a.754.754,0,0,1,.754.754v2.836a.754.754,0,0,1-.754.754Zm.754-1.508H21.7V8.9H14.357Z" transform="translate(0 -0.002)" fill="#4d9f75"/>
    </g>
  </g>
</svg>
